<?xml version="1.0" encoding="UTF-8" standalone="no"?>
<!DOCTYPE svg PUBLIC "-//W3C//DTD SVG 1.1//EN" "http://www.w3.org/Graphics/SVG/1.1/DTD/svg11.dtd">
<svg width="100%" height="100%" viewBox="0 0 375 375" version="1.1" xmlns="http://www.w3.org/2000/svg" xmlns:xlink="http://www.w3.org/1999/xlink" xml:space="preserve" xmlns:serif="http://www.serif.com/" style="fill-rule:evenodd;clip-rule:evenodd;stroke-linejoin:round;stroke-miterlimit:2;">
    <g transform="matrix(1,0,0,1,-1393.28,-247.06)">
        <g transform="matrix(1,0,0,0.634146,0,0)">
            <g transform="matrix(1.32958,0,0,1.43675,1051.3,-1231.49)">
                <g transform="matrix(1,0,0,1.08275,0,359.543)">
                    <rect x="271.024" y="727.559" width="255.173" height="255.173" style="fill:white;"/>
                </g>
                <g transform="matrix(0.414333,0,0,1.57692,263.749,-41.209)">
                    <path d="M331.773,949.147C331.773,948.518 330.442,948.007 328.801,948.007L322.858,948.007C321.218,948.007 319.886,948.518 319.886,949.147L319.886,1000.9C319.886,1001.53 321.218,1002.04 322.858,1002.04L328.801,1002.04C330.442,1002.04 331.773,1001.53 331.773,1000.9L331.773,949.147Z" style="fill:rgb(255,135,164);"/>
                </g>
                <g transform="matrix(0.358823,-0.326686,0.5,1.36566,-199.676,275.956)">
                    <path d="M331.773,949.195C331.773,948.539 330.442,948.007 328.801,948.007L322.858,948.007C321.218,948.007 319.886,948.539 319.886,949.195L319.886,1000.85C319.886,1001.51 321.218,1002.04 322.858,1002.04L328.801,1002.04C330.442,1002.04 331.773,1001.51 331.773,1000.85L331.773,949.195Z" style="fill:rgb(255,135,164);"/>
                </g>
                <g transform="matrix(-0.358823,-0.326686,-0.5,1.36566,997.177,275.956)">
                    <path d="M331.773,949.195C331.773,948.539 330.442,948.007 328.801,948.007L322.858,948.007C321.218,948.007 319.886,948.539 319.886,949.195L319.886,1000.85C319.886,1001.51 321.218,1002.04 322.858,1002.04L328.801,1002.04C330.442,1002.04 331.773,1001.51 331.773,1000.85L331.773,949.195Z" style="fill:rgb(255,135,164);"/>
                </g>
                <g transform="matrix(1,0,0,1.57692,0.823619,0)">
                    <path d="M414.981,903.492C414.981,899.215 411.229,895.742 406.607,895.742L389.857,895.742C385.235,895.742 381.482,899.215 381.482,903.492L381.482,940.257C381.482,944.535 385.235,948.007 389.857,948.007L406.607,948.007C411.229,948.007 414.981,944.535 414.981,940.257L414.981,903.492Z" style="fill:rgb(255,135,164);"/>
                </g>
                <g transform="matrix(0.752116,0,0,1.09757,-790.698,857.141)">
                    <path d="M1592.62,506.006C1596.47,507.761 1599.14,511.641 1599.14,516.141L1599.14,568.963C1599.14,575.108 1594.15,580.098 1588.01,580.098L1566.12,580.098C1567.53,580.74 1569.09,581.098 1570.74,581.098L1593.01,581.098C1599.15,581.098 1604.14,576.108 1604.14,569.963L1604.14,517.141C1604.14,510.995 1599.15,506.006 1593.01,506.006L1592.62,506.006Z" style="fill:rgb(245,204,171);"/>
                </g>
                <g transform="matrix(0.977528,0,0,0.683333,12.1181,640.74)">
                    <path d="M539.253,721.616C539.253,717.143 537.514,713.511 535.371,713.511L254.608,713.511C252.466,713.511 250.726,717.143 250.726,721.616L250.726,737.825C250.726,742.299 252.466,745.93 254.608,745.93L535.371,745.93C537.514,745.93 539.253,742.299 539.253,737.825L539.253,721.616Z" style="fill:rgb(255,135,164);"/>
                </g>
                <g transform="matrix(0.977528,0,0,0.683333,12.1181,924.95)">
                    <path d="M539.253,721.616C539.253,717.143 537.514,713.511 535.371,713.511L254.608,713.511C252.466,713.511 250.726,717.143 250.726,721.616L250.726,737.825C250.726,742.299 252.466,745.93 254.608,745.93L535.371,745.93C537.514,745.93 539.253,742.299 539.253,737.825L539.253,721.616Z" style="fill:rgb(255,135,164);"/>
                </g>
            </g>
        </g>
    </g>
</svg>
