<?xml version="1.0" encoding="UTF-8" standalone="no"?>
<!DOCTYPE svg PUBLIC "-//W3C//DTD SVG 1.1//EN" "http://www.w3.org/Graphics/SVG/1.1/DTD/svg11.dtd">
<svg width="100%" height="100%" viewBox="0 0 375 375" version="1.1" xmlns="http://www.w3.org/2000/svg" xmlns:xlink="http://www.w3.org/1999/xlink" xml:space="preserve" xmlns:serif="http://www.serif.com/" style="fill-rule:evenodd;clip-rule:evenodd;stroke-linejoin:round;stroke-miterlimit:2;">
    <g transform="matrix(1,0,0,1,-1272.55,-273.638)">
        <g transform="matrix(1,0,0,0.634146,0,0)">
            <g transform="matrix(1,0,0,1,-146.973,-2332.97)">
                <g transform="matrix(1.30244,0,0,1.24739,1089.08,2557.38)">
                    <path d="M503.593,403.292L290.709,403.292L290.709,547.54C290.709,550.84 291.505,554.005 292.923,556.338C294.34,558.672 296.262,559.983 298.266,559.983C331.458,559.983 464.101,559.983 496.451,559.983C498.345,559.983 500.161,558.744 501.501,556.538C502.84,554.333 503.593,551.342 503.593,548.223C503.593,511.8 503.593,403.292 503.593,403.292ZM356.547,434.861C356.547,423.181 347.079,413.712 335.399,413.712C335.089,413.712 334.78,413.712 334.47,413.712C322.79,413.712 313.322,423.181 313.322,434.861C313.322,467.427 313.322,526.135 313.322,526.135C313.322,531.098 318.164,535.128 324.128,535.128L345.741,535.128C351.705,535.128 356.547,531.098 356.547,526.135L356.547,434.861ZM419.764,434.861C419.764,423.181 410.295,413.712 398.615,413.712C398.306,413.712 397.996,413.712 397.687,413.712C386.007,413.712 376.539,423.181 376.539,434.861C376.539,467.427 376.539,526.135 376.539,526.135C376.539,531.098 381.381,535.128 387.345,535.128L408.957,535.128C414.921,535.128 419.764,531.098 419.764,526.135L419.764,434.861ZM478.117,434.861C478.117,423.181 468.649,413.712 456.969,413.712C456.66,413.712 456.35,413.712 456.041,413.712C444.361,413.712 434.892,423.181 434.892,434.861C434.892,467.427 434.892,526.135 434.892,526.135C434.892,531.098 439.734,535.128 445.699,535.128L467.311,535.128C473.275,535.128 478.117,531.098 478.117,526.135L478.117,434.861Z" style="fill:url(#_Linear1);"/>
                </g>
                <g transform="matrix(1.30244,0,0,2.26257,1102.5,-1143.42)">
                    <path d="M485.293,1858.01L485.293,1933.09C485.293,1938.23 481.128,1942.39 475.99,1942.39L284.304,1942.39C286.006,1943.68 288.092,1944.39 290.252,1944.39L483.99,1944.39C489.128,1944.39 493.293,1940.23 493.293,1935.09L493.293,1858.01L485.293,1858.01ZM305.141,1928.68C303.81,1927.86 303.022,1926.84 303.022,1925.73C303.022,1925.73 303.022,1893.37 303.022,1875.41C303.022,1868.97 312.49,1863.75 324.17,1863.75C324.479,1863.75 324.789,1863.75 325.098,1863.75C326.655,1863.75 328.173,1863.85 329.636,1864.02C326.127,1862.6 321.791,1861.75 317.098,1861.75C316.789,1861.75 316.479,1861.75 316.17,1861.75C304.49,1861.75 295.022,1866.97 295.022,1873.41C295.022,1891.37 295.022,1923.73 295.022,1923.73C295.022,1926.36 299.496,1928.52 305.141,1928.68ZM368.358,1928.68C367.026,1927.86 366.238,1926.84 366.238,1925.73C366.238,1925.73 366.238,1893.37 366.238,1875.41C366.238,1868.97 375.707,1863.75 387.387,1863.75C387.696,1863.75 388.006,1863.75 388.315,1863.75C389.872,1863.75 391.39,1863.85 392.852,1864.02C389.344,1862.6 385.008,1861.75 380.315,1861.75C380.006,1861.75 379.696,1861.75 379.387,1861.75C367.707,1861.75 358.238,1866.97 358.238,1873.41C358.238,1891.37 358.238,1923.73 358.238,1923.73C358.238,1926.36 362.713,1928.52 368.358,1928.68ZM426.712,1928.68C425.38,1927.86 424.592,1926.84 424.592,1925.73C424.592,1925.73 424.592,1893.37 424.592,1875.41C424.592,1868.97 434.061,1863.75 445.74,1863.75C446.05,1863.75 446.359,1863.75 446.669,1863.75C448.226,1863.75 449.744,1863.85 451.206,1864.02C447.698,1862.6 443.362,1861.75 438.669,1861.75C438.359,1861.75 438.05,1861.75 437.74,1861.75C426.061,1861.75 416.592,1866.97 416.592,1873.41C416.592,1891.37 416.592,1923.73 416.592,1923.73C416.592,1926.36 421.067,1928.52 426.712,1928.68Z" style="fill:rgb(253,74,115);"/>
                </g>
                <g transform="matrix(1.46212,0,0,4.87689,1023.25,578.553)">
                    <path d="M526.197,550.834C526.197,547.404 520.308,544.62 513.054,544.62L284.167,544.62C276.913,544.62 271.024,547.404 271.024,550.834L271.024,563.261C271.024,566.69 276.913,569.475 284.167,569.475L513.054,569.475C520.308,569.475 526.197,566.69 526.197,563.261L526.197,550.834Z" style="fill:url(#_Linear2);"/>
                </g>
                <g transform="matrix(1.46959,0,0,3.058,1037.84,-2685.46)">
                    <path d="M507.352,1936.62C507.515,1937.34 507.6,1938.08 507.6,1938.84L507.6,1958.65C507.6,1964.12 503.16,1968.56 497.691,1968.56L263.633,1968.56C262.34,1968.56 261.105,1968.32 259.972,1967.86C260.977,1972.27 264.924,1975.56 269.633,1975.56L503.691,1975.56C509.16,1975.56 513.6,1971.12 513.6,1965.65L513.6,1945.84C513.6,1941.66 511.011,1938.08 507.352,1936.62Z" style="fill:rgb(253,74,115);"/>
                </g>
                <g transform="matrix(1.46959,0,0,2.4056,1021.23,2073.52)">
                    <path d="M398.151,298.363L504.593,403.292L291.709,403.292L398.151,298.363Z" style="fill:white;"/>
                </g>
                <g transform="matrix(1.46959,0,0,2.79406,1021.23,1930.83)">
                    <path d="M388.097,302.162C394.642,297.097 403.784,297.097 410.33,302.162C434.594,320.939 492.556,365.793 522.952,389.315C525.78,391.504 526.904,395.249 525.747,398.633C524.591,402.018 521.41,404.292 517.834,404.292C463.147,404.292 331.686,404.292 278.762,404.292C275.453,404.292 272.51,402.188 271.44,399.057C270.37,395.926 271.41,392.461 274.026,390.436C303.993,367.246 363.442,321.242 388.097,302.162ZM387.097,326.58C393.642,321.515 402.784,321.515 409.33,326.58C425.255,338.904 454.794,361.763 474.352,376.898C477.18,379.086 478.304,382.831 477.147,386.216C475.991,389.6 472.81,391.874 469.234,391.874C431.965,391.874 361.508,391.874 325.362,391.874C322.053,391.874 319.11,389.77 318.04,386.639C316.97,383.508 318.01,380.043 320.627,378.018C340.147,362.913 370.774,339.212 387.097,326.58Z" style="fill:url(#_Linear3);"/>
                </g>
                <g transform="matrix(1.41727,0,0,2.23493,1070.96,2157.68)">
                    <circle cx="378.24" cy="351.328" r="20.973" style="fill:rgb(253,74,115);"/>
                </g>
                <g transform="matrix(1.84506,0,0,2.90952,893.26,-2340.14)">
                    <path d="M396.642,1802.98C400.483,1805.92 402.961,1810.56 402.961,1815.77C402.961,1824.66 395.742,1831.88 386.851,1831.88C381.641,1831.88 377.006,1829.4 374.06,1825.56C376.774,1827.64 380.169,1828.88 383.851,1828.88C392.742,1828.88 399.961,1821.66 399.961,1812.77C399.961,1809.09 398.723,1805.69 396.642,1802.98Z" style="fill:rgb(248,45,99);"/>
                </g>
            </g>
        </g>
    </g>
    <defs>
        <linearGradient id="_Linear1" x1="0" y1="0" x2="1" y2="0" gradientUnits="userSpaceOnUse" gradientTransform="matrix(227.878,18.2102,-11.0598,375.205,275.715,481.637)"><stop offset="0" style="stop-color:rgb(255,135,164);stop-opacity:1"/><stop offset="1" style="stop-color:rgb(248,45,99);stop-opacity:1"/></linearGradient>
        <linearGradient id="_Linear2" x1="0" y1="0" x2="1" y2="0" gradientUnits="userSpaceOnUse" gradientTransform="matrix(202.991,4.65774,-9.85199,95.9685,290.626,528.947)"><stop offset="0" style="stop-color:rgb(255,135,164);stop-opacity:1"/><stop offset="1" style="stop-color:rgb(248,45,99);stop-opacity:1"/></linearGradient>
        <linearGradient id="_Linear3" x1="0" y1="0" x2="1" y2="0" gradientUnits="userSpaceOnUse" gradientTransform="matrix(201.96,8.12984,-9.80192,167.508,290.527,439.269)"><stop offset="0" style="stop-color:rgb(255,135,164);stop-opacity:1"/><stop offset="1" style="stop-color:rgb(248,45,99);stop-opacity:1"/></linearGradient>
    </defs>
</svg>
