<?xml version="1.0" encoding="UTF-8" standalone="no"?>
<!DOCTYPE svg PUBLIC "-//W3C//DTD SVG 1.1//EN" "http://www.w3.org/Graphics/SVG/1.1/DTD/svg11.dtd">
<svg width="100%" height="100%" viewBox="0 0 375 375" version="1.1" xmlns="http://www.w3.org/2000/svg" xmlns:xlink="http://www.w3.org/1999/xlink" xml:space="preserve" xmlns:serif="http://www.serif.com/" style="fill-rule:evenodd;clip-rule:evenodd;stroke-linejoin:round;stroke-miterlimit:2;">
    <g transform="matrix(1,0,0,1,-1426.09,-1235.19)">
        <g transform="matrix(1,0,0,0.634146,0,0)">
            <g transform="matrix(1.85563,0,0,1.32652,89.5383,1328.24)">
                <g transform="matrix(0.825648,0,0,1.42622,143.197,113.09)">
                    <path d="M918.532,409.782C918.532,409.782 933.235,497.997 940.162,539.561C941.025,544.737 940.011,550.134 937.404,554.247C934.796,558.36 930.874,560.749 926.73,560.749L715.098,560.749C711.149,560.749 707.411,558.472 704.926,554.552C702.441,550.632 701.475,545.489 702.297,540.556C709.152,499.424 724.093,409.782 724.093,409.782C724.093,409.782 720.149,384.129 717.079,364.158C716.203,358.464 717.369,352.569 720.256,348.087C723.143,343.606 727.449,341.01 731.993,341.01C773.541,341.01 873.778,341.01 912.994,341.01C916.957,341.01 920.712,343.274 923.23,347.183C925.748,351.091 926.765,356.233 926.001,361.199C922.882,381.49 918.532,409.782 918.532,409.782Z" style="fill:rgb(255,135,164);"/>
                </g>
                <g transform="matrix(0.538899,0,0,1.3022,-48.2521,-1183.95)">
                    <path d="M1769.09,1376.7C1769.2,1376.82 1769.3,1376.94 1769.4,1377.07C1773.26,1381.84 1774.75,1388.1 1773.46,1394.1C1768.73,1416.08 1762.54,1444.84 1762.54,1444.84C1762.54,1444.84 1784.23,1537.87 1795.07,1584.37C1796.53,1590.62 1795.06,1597.2 1791.06,1602.23C1787.07,1607.26 1781,1610.19 1774.58,1610.19L1451.36,1610.19C1445.24,1610.19 1439.46,1607.39 1435.65,1602.6C1432.2,1598.25 1430.72,1592.69 1431.52,1587.24C1431.6,1587.36 1431.69,1587.47 1431.78,1587.59C1435.59,1592.41 1441.39,1595.23 1447.53,1595.23L1770.4,1595.23C1776.85,1595.23 1782.94,1592.27 1786.93,1587.21C1790.92,1582.15 1792.37,1575.54 1790.86,1569.27C1779.95,1523.84 1758.54,1434.66 1758.54,1434.66C1758.54,1434.66 1764.57,1407.45 1769.27,1386.22C1769.98,1383.04 1769.9,1379.78 1769.09,1376.7Z" style="fill:rgb(245,204,171);"/>
                </g>
                <g transform="matrix(0.708497,0,0,1.57692,239.651,0)">
                    <path d="M781.249,445.53L781.249,355.635C781.249,333.85 798.909,316.189 820.695,316.189C820.695,316.189 820.696,316.189 820.697,316.189C831.385,316.189 841.636,320.435 849.194,327.993C856.751,335.55 860.997,345.801 860.997,356.489L860.997,445.53L875.614,445.53L875.614,349.849C875.614,320.208 851.585,296.18 821.945,296.18L821.491,296.18C792.298,296.18 768.632,319.845 768.632,349.038C768.632,392.003 768.632,445.53 768.632,445.53L781.249,445.53Z" style="fill:rgb(251,170,8);"/>
                </g>
                <g transform="matrix(0.708497,0,0,1.57692,547.786,-1727.92)">
                    <path d="M346.336,1541.29L338.842,1541.29C338.842,1541.29 338.842,1490.32 338.842,1449.41C338.842,1421.62 360.241,1399.09 386.638,1399.09L387.049,1399.09C413.851,1399.09 435.578,1421.96 435.578,1450.19L435.578,1541.29L426.084,1541.29L440.701,1541.29L440.701,1445.6C440.701,1415.96 416.673,1391.93 387.032,1391.93L386.578,1391.93C357.385,1391.93 333.719,1415.6 333.719,1444.79C333.719,1487.76 333.719,1541.29 333.719,1541.29L346.336,1541.29Z" style="fill:rgb(242,183,112);"/>
                </g>
            </g>
        </g>
    </g>
</svg>
