<svg width="46" height="46" viewBox="0 0 46 46" fill="none" xmlns="http://www.w3.org/2000/svg">
<path d="M23 42C33.4934 42 42 33.4934 42 23C42 12.5066 33.4934 4 23 4C12.5066 4 4 12.5066 4 23C4 33.4934 12.5066 42 23 42Z" fill="#29C5F6" stroke="#29C5F6" stroke-width="2"/>
<path d="M15 25C16.1046 25 17 24.1046 17 23C17 21.8954 16.1046 21 15 21C13.8954 21 13 21.8954 13 23C13 24.1046 13.8954 25 15 25Z" fill="white"/>
<path d="M23 25C24.1046 25 25 24.1046 25 23C25 21.8954 24.1046 21 23 21C21.8954 21 21 21.8954 21 23C21 24.1046 21.8954 25 23 25Z" fill="white"/>
<path d="M31 25C32.1046 25 33 24.1046 33 23C33 21.8954 32.1046 21 31 21C29.8954 21 29 21.8954 29 23C29 24.1046 29.8954 25 31 25Z" fill="white"/>
</svg>
